<svg xmlns="http://www.w3.org/2000/svg" width="600" height="400" viewBox="0 0 600 400">
  <defs>
    <linearGradient id="gradient" x1="0%" y1="0%" x2="100%" y2="100%">
      <stop offset="0%" stop-color="#409EFF" />
      <stop offset="100%" stop-color="#00D67C" />
    </linearGradient>
  </defs>
  <rect width="600" height="400" fill="#f8f9fa" rx="20" ry="20" />
  <rect x="40" y="40" width="320" height="320" fill="#fff" rx="10" ry="10" stroke="#e0e0e0" stroke-width="2" />
  <rect x="390" y="40" width="170" height="320" fill="#fff" rx="10" ry="10" stroke="#e0e0e0" stroke-width="2" />
  
  <!-- 图像示例 -->
  <rect x="60" y="60" width="280" height="200" fill="#f0f5ff" rx="5" ry="5" />
  <circle cx="200" cy="160" r="70" fill="url(#gradient)" opacity="0.8" />
  <path d="M60,260 L340,260 L340,300 L60,300 Z" fill="#f5f7fa" />
  
  <!-- 控制面板 -->
  <rect x="410" y="60" width="130" height="80" fill="#f5f7fa" rx="5" ry="5" />
  <rect x="420" y="80" width="110" height="8" fill="#dcdfe6" rx="4" ry="4" />
  <rect x="420" y="100" width="90" height="8" fill="#dcdfe6" rx="4" ry="4" />
  <rect x="420" y="120" width="70" height="8" fill="#dcdfe6" rx="4" ry="4" />
  
  <rect x="410" y="150" width="130" height="80" fill="#f5f7fa" rx="5" ry="5" />
  <rect x="420" y="170" width="110" height="8" fill="#dcdfe6" rx="4" ry="4" />
  <rect x="420" y="190" width="90" height="8" fill="#dcdfe6" rx="4" ry="4" />
  <circle cx="425" cy="210" r="5" fill="#409EFF" />
  <rect x="440" y="206" width="70" height="8" fill="#dcdfe6" rx="4" ry="4" />
  
  <rect x="410" y="240" width="130" height="80" fill="#f5f7fa" rx="5" ry="5" />
  <rect x="420" y="260" width="110" height="8" fill="#dcdfe6" rx="4" ry="4" />
  <rect x="420" y="280" width="90" height="8" fill="#dcdfe6" rx="4" ry="4" />
  <rect x="420" y="300" width="110" height="10" fill="#409EFF" rx="5" ry="5" />
  
  <!-- AI 图标 -->
  <text x="300" y="380" font-family="Arial" font-size="16" font-weight="bold" fill="#409EFF">AI</text>
  <circle cx="300" cy="360" r="15" fill="none" stroke="#409EFF" stroke-width="2" />
</svg> 